# xmcd
#
# Track frame offsets:
#	150
#	26596
#	42432
#	61727
#	86078
#	113530
#	127397
#	163546
#	192172
#
# Disc length: 3022 seconds
#
# Revision: 1
# Processed by: cddbd v1.5.2PL0 Copyright (c) Steve Scherf et al.
# Submitted via: CDmax 1.8
#
DISCID=740bcc09
DTITLE=DEKAdance - Happy Birthday
DYEAR=1989
DGENRE=Rock
TTITLE0=Happy Birthday
TTITLE1=Culreb
TTITLE2=Hoch Heidecksburg
TTITLE3=Woman On The Road
TTITLE4=It's Time Goes By
TTITLE5=I Am The Walrus
TTITLE6=Alex Goes To Hollywood
TTITLE7=They Had No Tickets About Them
TTITLE8=The Contempt
EXTD=
EXTT0=
EXTT1=
EXTT2=
EXTT3=
EXTT4=
EXTT5=
EXTT6=
EXTT7=
EXTT8=
PLAYORDER=
